<?xml version="1.0" encoding="UTF-8" standalone="no"?>
<svg
   xmlns:dc="http://purl.org/dc/elements/1.1/"
   xmlns:cc="http://creativecommons.org/ns#"
   xmlns:rdf="http://www.w3.org/1999/02/22-rdf-syntax-ns#"
   xmlns:svg="http://www.w3.org/2000/svg"
   xmlns="http://www.w3.org/2000/svg"
   xmlns:sodipodi="http://sodipodi.sourceforge.net/DTD/sodipodi-0.dtd"
   xmlns:inkscape="http://www.inkscape.org/namespaces/inkscape"
   inkscape:export-ydpi="104"
   inkscape:export-xdpi="104"
   inkscape:export-filename="/home/informatic/Projects/youtube-webos/largeIcon.png"
   width="120"
   height="120"
   viewBox="0 0 31.749999 31.750001"
   version="1.1"
   id="svg8"
   inkscape:version="1.0 (4035a4fb49, 2020-05-01)"
   sodipodi:docname="icon.svg">
  <defs
     id="defs2" />
  <sodipodi:namedview
     id="base"
     pagecolor="#fe0000"
     bordercolor="#666666"
     borderopacity="1.0"
     inkscape:pageopacity="1"
     inkscape:pageshadow="2"
     inkscape:zoom="1.5271908"
     inkscape:cx="3.7196771"
     inkscape:cy="111.2233"
     inkscape:document-units="mm"
     inkscape:current-layer="layer1"
     inkscape:document-rotation="0"
     showgrid="false"
     units="px"
     showguides="true"
     inkscape:guide-bbox="true"
     inkscape:window-width="1920"
     inkscape:window-height="1062"
     inkscape:window-x="0"
     inkscape:window-y="18"
     inkscape:window-maximized="1">
    <sodipodi:guide
       position="-111.4957,1.4450555"
       orientation="1,0"
       id="guide849" />
    <sodipodi:guide
       position="-13.576889,81.934487"
       orientation="0,-1"
       id="guide851" />
  </sodipodi:namedview>
  <metadata
     id="metadata5">
    <rdf:RDF>
      <cc:Work
         rdf:about="">
        <dc:format>image/svg+xml</dc:format>
        <dc:type
           rdf:resource="http://purl.org/dc/dcmitype/StillImage" />
        <dc:title></dc:title>
      </cc:Work>
    </rdf:RDF>
  </metadata>
  <g
     inkscape:label="Layer 1"
     inkscape:groupmode="layer"
     id="layer1">
    <path
       id="path853"
       style="fill:#ffffff;fill-rule:evenodd;stroke:none;stroke-width:0.15913px;stroke-linecap:butt;stroke-linejoin:miter;stroke-opacity:1"
       d="m 15.912207,8.28089 c -0.195096,0 -1.115834,1.6350003 -2.158524,3.608048 h 4.292244 C 17.016939,9.9158523 16.107306,8.28089 15.912207,8.28089 Z m -2.967261,5.153173 c -0.315755,0.611655 -0.62749,1.222985 -0.923457,1.806608 h 7.732861 c -0.291935,-0.583616 -0.599556,-1.194957 -0.911056,-1.806608 z m -1.702221,3.351734 c -0.552947,1.103335 -0.956147,1.919679 -1.01906,2.04742 H 8.4981896 c -0.3296656,0 -0.5947958,0.265647 -0.5947958,0.595312 v 0.270785 c 0,0.329665 0.2651302,0.594795 0.5947958,0.594795 H 23.251811 c 0.329666,0 0.594795,-0.26513 0.594795,-0.594795 v -0.270785 c 0,-0.329665 -0.265129,-0.595312 -0.594795,-0.595312 h -1.724443 c -0.06203,-0.127755 -0.459747,-0.944093 -1.005107,-2.04742 z" />
    <g
       id="g1053"
       transform="translate(-0.81692282,-0.84791161)" />
  </g>
</svg>
