<?xml version="1.0" encoding="UTF-8"?>
<!DOCTYPE svg PUBLIC "-//W3C//DTD SVG 1.1//EN" "http://www.w3.org/Graphics/SVG/1.1/DTD/svg11.dtd">
<svg xmlns="http://www.w3.org/2000/svg" version="1.1" width="3000px" height="2000px" style="shape-rendering:geometricPrecision; text-rendering:geometricPrecision; image-rendering:optimizeQuality; fill-rule:evenodd; clip-rule:evenodd" xmlns:xlink="http://www.w3.org/1999/xlink">
<g><path style="opacity:1" fill="#1c1c1c" d="M -0.5,-0.5 C 999.5,-0.5 1999.5,-0.5 2999.5,-0.5C 2999.5,666.167 2999.5,1332.83 2999.5,1999.5C 1999.5,1999.5 999.5,1999.5 -0.5,1999.5C -0.5,1332.83 -0.5,666.167 -0.5,-0.5 Z"/></g>
<g><path style="opacity:1" fill="#ff0000" d="M 654.5,743.5 C 721.515,743.136 788.515,743.969 855.5,746C 892.58,747.083 929.58,749.416 966.5,753C 991.495,753.573 1014.16,760.906 1034.5,775C 1049.55,787.58 1059.72,803.414 1065,822.5C 1073.11,862.108 1077.61,901.941 1078.5,942C 1081.22,1001.93 1079.72,1061.76 1074,1121.5C 1072.19,1140.03 1069.19,1158.36 1065,1176.5C 1055.4,1210.43 1033.57,1231.93 999.5,1241C 967.392,1246.45 935.392,1249.61 903.5,1250.5C 896.275,1251.99 889.275,1252.32 882.5,1251.5C 878.274,1252.07 874.108,1252.74 870,1253.5C 865.593,1252.66 861.26,1252.33 857,1252.5C 854.373,1253.32 851.706,1253.99 849,1254.5C 842.467,1254.55 835.967,1254.21 829.5,1253.5C 824.512,1253.38 819.679,1254.04 815,1255.5C 751.211,1255.44 687.544,1255.44 624,1255.5C 596.407,1253.89 568.74,1252.56 541,1251.5C 538.906,1251.54 536.906,1251.87 535,1252.5C 527.246,1250.53 519.412,1250.2 511.5,1251.5C 487.032,1248.95 462.366,1245.95 437.5,1242.5C 392.891,1233.73 366.891,1207.23 359.5,1163C 357.731,1154.22 356.231,1145.38 355,1136.5C 354.5,1136 354,1135.5 353.5,1135C 354.108,1133.77 354.441,1132.44 354.5,1131C 353.52,1123.52 352.687,1116.02 352,1108.5C 351.5,1108 351,1107.5 350.5,1107C 351.127,1105.26 351.46,1103.43 351.5,1101.5C 350.905,1095.17 350.405,1088.84 350,1082.5C 349.5,1082 349,1081.5 348.5,1081C 349.141,1078.42 349.475,1075.75 349.5,1073C 346.282,1012.11 347.116,951.276 352,890.5C 353.756,863.63 358.423,837.296 366,811.5C 378.941,781.599 401.441,763.432 433.5,757C 458.35,752.957 483.35,750.29 508.5,749C 557.301,746.439 605.968,744.605 654.5,743.5 Z"/></g>
<g><path style="opacity:1" fill="#cecfce" d="M 2226.5,763.5 C 2226.5,763.167 2226.5,762.833 2226.5,762.5C 2249.5,762.5 2272.5,762.5 2295.5,762.5C 2295.5,818.167 2295.5,873.833 2295.5,929.5C 2294.5,874.336 2294.17,819.003 2294.5,763.5C 2271.83,763.5 2249.17,763.5 2226.5,763.5 Z"/></g>
<g><path style="opacity:1" fill="#fefefe" d="M 2226.5,763.5 C 2249.17,763.5 2271.83,763.5 2294.5,763.5C 2294.17,819.003 2294.5,874.336 2295.5,929.5C 2295.78,930.289 2296.28,930.956 2297,931.5C 2315.74,899.05 2343.58,886.55 2380.5,894C 2393.51,897.35 2403.35,904.85 2410,916.5C 2418.57,933.125 2423.57,950.792 2425,969.5C 2426.51,983.129 2427.51,996.795 2428,1010.5C 2428.67,1041.17 2428.67,1071.83 2428,1102.5C 2427.66,1126.6 2424.32,1150.27 2418,1173.5C 2402.39,1219.55 2371.55,1234.39 2325.5,1218C 2312.13,1211.63 2301.63,1202.13 2294,1189.5C 2293.05,1189.91 2292.39,1190.57 2292,1191.5C 2289.99,1200.55 2287.82,1209.55 2285.5,1218.5C 2265.83,1218.5 2246.17,1218.5 2226.5,1218.5C 2226.5,1066.83 2226.5,915.167 2226.5,763.5 Z"/></g>
<g><path style="opacity:1" fill="#cecfce" d="M 1155.5,779.5 C 1167.16,778.833 1179,778.5 1191,778.5C 1203.19,778.501 1215.02,779.168 1226.5,780.5C 1202.91,779.511 1179.24,779.177 1155.5,779.5 Z"/></g>
<g><path style="opacity:1" fill="#cecfce" d="M 1320.5,779.5 C 1343.99,778.502 1367.66,778.169 1391.5,778.5C 1391.74,779.791 1391.4,780.791 1390.5,781.5C 1367.52,779.51 1344.19,778.843 1320.5,779.5 Z"/></g>
<g><path style="opacity:1" fill="#cecfce" d="M 1934.5,836.5 C 1957.99,835.502 1981.66,835.169 2005.5,835.5C 2005.5,816.833 2005.5,798.167 2005.5,779.5C 1934.5,779.5 1863.5,779.5 1792.5,779.5C 1792.5,798.167 1792.5,816.833 1792.5,835.5C 1816.01,835.169 1839.34,835.502 1862.5,836.5C 1838.83,836.5 1815.17,836.5 1791.5,836.5C 1791.5,817.167 1791.5,797.833 1791.5,778.5C 1863.17,778.5 1934.83,778.5 2006.5,778.5C 2006.5,797.833 2006.5,817.167 2006.5,836.5C 1982.5,836.5 1958.5,836.5 1934.5,836.5 Z"/></g>
<g><path style="opacity:1" fill="#fefefe" d="M 1155.5,779.5 C 1179.24,779.177 1202.91,779.511 1226.5,780.5C 1242.65,853.261 1257.65,926.261 1271.5,999.5C 1272.5,999.5 1273.5,999.5 1274.5,999.5C 1278.29,975.05 1282.79,950.716 1288,926.5C 1298.68,877.447 1309.51,828.447 1320.5,779.5C 1344.19,778.843 1367.52,779.51 1390.5,781.5C 1363.48,879.598 1336.14,977.598 1308.5,1075.5C 1307.5,1123 1307.17,1170.66 1307.5,1218.5C 1284.5,1218.5 1261.5,1218.5 1238.5,1218.5C 1238.83,1171 1238.5,1123.66 1237.5,1076.5C 1209.77,977.63 1182.43,878.63 1155.5,779.5 Z"/></g>
<g><path style="opacity:1" fill="#fefffe" d="M 1934.5,836.5 C 1933.5,963.666 1933.17,1091 1933.5,1218.5C 1910.5,1218.5 1887.5,1218.5 1864.5,1218.5C 1864.83,1091.33 1864.5,964.332 1863.5,837.5C 1863.5,836.833 1863.17,836.5 1862.5,836.5C 1839.34,835.502 1816.01,835.169 1792.5,835.5C 1792.5,816.833 1792.5,798.167 1792.5,779.5C 1863.5,779.5 1934.5,779.5 2005.5,779.5C 2005.5,798.167 2005.5,816.833 2005.5,835.5C 1981.66,835.169 1957.99,835.502 1934.5,836.5 Z"/></g>
<g><path style="opacity:1" fill="#c1c1c1" d="M 1934.5,836.5 C 1934.5,964.167 1934.5,1091.83 1934.5,1219.5C 1910.83,1219.5 1887.17,1219.5 1863.5,1219.5C 1863.5,1092.17 1863.5,964.833 1863.5,837.5C 1864.5,964.332 1864.83,1091.33 1864.5,1218.5C 1887.5,1218.5 1910.5,1218.5 1933.5,1218.5C 1933.17,1091 1933.5,963.666 1934.5,836.5 Z"/></g>
<g><path style="opacity:1" fill="#fffefe" d="M 640.5,889.5 C 704.075,925.74 767.408,962.406 830.5,999.5C 767.463,1036.37 704.296,1073.03 641,1109.5C 640.5,1036.17 640.333,962.834 640.5,889.5 Z"/></g>
<g><path style="opacity:1" fill="#fefefe" d="M 1464.5,891.5 C 1523.47,886.335 1558.3,912.668 1569,970.5C 1573.4,999.66 1575.24,1028.99 1574.5,1058.5C 1575.09,1086.29 1573.59,1113.96 1570,1141.5C 1567.41,1160.27 1561.08,1177.6 1551,1193.5C 1535.86,1212.49 1516.02,1222.66 1491.5,1224C 1469.28,1226.42 1447.62,1224.08 1426.5,1217C 1401.15,1204.63 1385.98,1184.46 1381,1156.5C 1378.68,1145.93 1377.02,1135.27 1376,1124.5C 1374.42,1085.18 1374.08,1045.85 1375,1006.5C 1375.99,985.241 1379.99,964.574 1387,944.5C 1401.43,910.356 1427.26,892.689 1464.5,891.5 Z"/></g>
<g><path style="opacity:1" fill="#fefefe" d="M 2551.5,891.5 C 2570.74,890.749 2589.41,893.582 2607.5,900C 2627.29,910.376 2639.79,926.543 2645,948.5C 2647.97,959.998 2649.97,971.664 2651,983.5C 2652.4,1016.48 2652.9,1049.48 2652.5,1082.5C 2612.17,1082.5 2571.83,1082.5 2531.5,1082.5C 2530.96,1105.56 2531.79,1128.56 2534,1151.5C 2536.92,1171.04 2548.08,1178.88 2567.5,1175C 2578.88,1170.46 2585.04,1161.96 2586,1149.5C 2587.53,1140.22 2588.36,1130.89 2588.5,1121.5C 2609.16,1122.58 2629.83,1123.58 2650.5,1124.5C 2652.77,1147.46 2648.6,1169.13 2638,1189.5C 2627.13,1204.68 2612.63,1214.85 2594.5,1220C 2567.18,1226.82 2540.18,1225.82 2513.5,1217C 2494.46,1208.29 2481.29,1194.12 2474,1174.5C 2467.05,1154.76 2463.05,1134.42 2462,1113.5C 2461.33,1076.83 2461.33,1040.17 2462,1003.5C 2462.89,976.289 2469.55,950.622 2482,926.5C 2494.34,908.235 2511.51,897.401 2533.5,894C 2539.66,893.25 2545.66,892.417 2551.5,891.5 Z"/></g>
<g><path style="opacity:1" fill="#cecece" d="M 1684.5,1137.5 C 1683.5,1058 1683.17,978.335 1683.5,898.5C 1660.17,898.5 1636.83,898.5 1613.5,898.5C 1613.5,982.167 1613.5,1065.83 1613.5,1149.5C 1612.5,1065.67 1612.17,981.668 1612.5,897.5C 1636.5,897.5 1660.5,897.5 1684.5,897.5C 1684.5,977.5 1684.5,1057.5 1684.5,1137.5 Z"/></g>
<g><path style="opacity:1" fill="#cecfce" d="M 1985.5,898.5 C 2009.33,897.502 2033.33,897.169 2057.5,897.5C 2057.5,980.5 2057.5,1063.5 2057.5,1146.5C 2056.5,1064 2056.17,981.335 2056.5,898.5C 2032.83,898.5 2009.17,898.5 1985.5,898.5 Z"/></g>
<g><path style="opacity:1" fill="#cecfce" d="M 2125.5,1218.5 C 2143.83,1218.5 2162.17,1218.5 2180.5,1218.5C 2180.5,1111.83 2180.5,1005.17 2180.5,898.5C 2157.17,898.5 2133.83,898.5 2110.5,898.5C 2110.83,984.002 2110.5,1069.33 2109.5,1154.5C 2109.5,1068.83 2109.5,983.167 2109.5,897.5C 2133.5,897.5 2157.5,897.5 2181.5,897.5C 2181.5,1004.83 2181.5,1112.17 2181.5,1219.5C 2162.66,1219.83 2143.99,1219.5 2125.5,1218.5 Z"/></g>
<g><path style="opacity:1" fill="#fefefe" d="M 1808.5,1218.5 C 1789.76,1218.82 1771.09,1218.49 1752.5,1217.5C 1750.39,1205.19 1748.39,1192.86 1746.5,1180.5C 1745.32,1180.28 1744.32,1180.61 1743.5,1181.5C 1722.06,1220.04 1690.06,1232.87 1647.5,1220C 1633.39,1212.88 1623.89,1201.72 1619,1186.5C 1615.28,1174.44 1613.45,1162.11 1613.5,1149.5C 1613.5,1065.83 1613.5,982.167 1613.5,898.5C 1636.83,898.5 1660.17,898.5 1683.5,898.5C 1683.17,978.335 1683.5,1058 1684.5,1137.5C 1684.51,1146.76 1686.01,1155.76 1689,1164.5C 1694.12,1173.1 1701.62,1176.27 1711.5,1174C 1723.27,1171.22 1731.77,1164.39 1737,1153.5C 1737.5,1068.17 1737.67,982.834 1737.5,897.5C 1761.17,897.5 1784.83,897.5 1808.5,897.5C 1808.5,1004.5 1808.5,1111.5 1808.5,1218.5 Z"/></g>
<g><path style="opacity:1" fill="#fefefe" d="M 1985.5,898.5 C 2009.17,898.5 2032.83,898.5 2056.5,898.5C 2056.17,981.335 2056.5,1064 2057.5,1146.5C 2058.72,1172.1 2071.05,1179.93 2094.5,1170C 2101.08,1166.26 2106.08,1161.09 2109.5,1154.5C 2110.5,1069.33 2110.83,984.002 2110.5,898.5C 2133.83,898.5 2157.17,898.5 2180.5,898.5C 2180.5,1005.17 2180.5,1111.83 2180.5,1218.5C 2162.17,1218.5 2143.83,1218.5 2125.5,1218.5C 2123.12,1206.25 2120.96,1193.91 2119,1181.5C 2118.59,1181.04 2118.09,1180.71 2117.5,1180.5C 2110.96,1192.05 2102.63,1202.21 2092.5,1211C 2073.25,1223.71 2052.25,1227.71 2029.5,1223C 2011.7,1218.53 1999.53,1207.7 1993,1190.5C 1989,1178.83 1986.67,1166.83 1986,1154.5C 1985.5,1069.17 1985.33,983.834 1985.5,898.5 Z"/></g>
<g><path style="opacity:1" fill="#1d1d1d" d="M 2550.5,940.5 C 2558.21,939.665 2565.54,940.831 2572.5,944C 2575.27,946.383 2577.44,949.217 2579,952.5C 2581.85,960.591 2583.52,968.924 2584,977.5C 2585.5,998.391 2585.67,1019.22 2584.5,1040C 2566.93,1040.82 2549.43,1040.66 2532,1039.5C 2530.91,1014.44 2531.58,989.441 2534,964.5C 2534.87,953.017 2540.37,945.017 2550.5,940.5 Z"/></g>
<g><path style="opacity:1" fill="#1c1c1c" d="M 1470.5,940.5 C 1484.63,940.125 1493.46,946.792 1497,960.5C 1498.4,967.867 1499.74,975.533 1501,983.5C 1501.95,1036.18 1501.61,1088.85 1500,1141.5C 1499.3,1151.31 1496.3,1160.31 1491,1168.5C 1484.15,1175.18 1475.99,1177.34 1466.5,1175C 1457.55,1170.61 1452.38,1163.44 1451,1153.5C 1449.28,1146.6 1448.28,1139.6 1448,1132.5C 1447.33,1082.5 1447.33,1032.5 1448,982.5C 1448.66,970.84 1451.66,959.84 1457,949.5C 1460.87,945.331 1465.37,942.331 1470.5,940.5 Z"/></g>
<g><path style="opacity:1" fill="#1c1c1c" d="M 2322.5,942.5 C 2337.36,941.91 2346.52,948.577 2350,962.5C 2352.98,974.647 2354.65,986.981 2355,999.5C 2355.67,1037.5 2355.67,1075.5 2355,1113.5C 2354.6,1127.08 2352.6,1140.41 2349,1153.5C 2340.17,1173.22 2326,1178.06 2306.5,1168C 2301.95,1165.12 2298.45,1161.28 2296,1156.5C 2295.33,1094.5 2295.33,1032.5 2296,970.5C 2300.66,957.015 2309.49,947.681 2322.5,942.5 Z"/></g>
<g><path style="opacity:1" fill="#cecfce" d="M 1308.5,1075.5 C 1308.5,1123.5 1308.5,1171.5 1308.5,1219.5C 1284.83,1219.5 1261.17,1219.5 1237.5,1219.5C 1237.5,1171.83 1237.5,1124.17 1237.5,1076.5C 1238.5,1123.66 1238.83,1171 1238.5,1218.5C 1261.5,1218.5 1284.5,1218.5 1307.5,1218.5C 1307.17,1170.66 1307.5,1123 1308.5,1075.5 Z"/></g>
<g><path style="opacity:1" fill="#cecfce" d="M 1752.5,1217.5 C 1771.09,1218.49 1789.76,1218.82 1808.5,1218.5C 1799.34,1219.17 1790.01,1219.5 1780.5,1219.5C 1770.81,1219.5 1761.48,1218.83 1752.5,1217.5 Z"/></g>
<g><path style="opacity:1" fill="#a4a4a4" d="M 2226.5,762.5 C 2226.5,762.833 2226.5,763.167 2226.5,763.5C 2226.5,915.167 2226.5,1066.83 2226.5,1218.5C 2246.17,1218.5 2265.83,1218.5 2285.5,1218.5C 2265.67,1219.5 2245.67,1219.83 2225.5,1219.5C 2225.17,1067 2225.5,914.666 2226.5,762.5 Z"/></g>
</svg>
